<svg width="500" height="500" viewBox="0 0 500 500" fill="none" xmlns="http://www.w3.org/2000/svg">
<g clip-path="url(#clip0_115_21)">
<rect width="500" height="500" rx="95" fill="white"/>
<rect width="500" height="500" fill="#0075A7"/>
<path d="M250.188 194.094L214.693 429.018L64.485 342.295L250.188 194.094Z" fill="#01D7CA"/>
<path d="M250.204 194.069L435.907 342.271L285.699 428.993L250.204 194.069Z" fill="white"/>
<path d="M127.839 152L127.339 145.3L138.739 143.3V91.6H126.239L122.139 101.5H115.939L118.039 82.9H169.239L171.439 101.4H165.339L161.139 91.6H148.739V143.3L160.239 145.3L159.739 152H127.839ZM205.44 152.4C200.707 152.4 196.54 151.5 192.94 149.7C189.407 147.833 186.473 145.267 184.14 142C181.807 138.733 180.04 135.033 178.84 130.9C177.707 126.7 177.14 122.267 177.14 117.6C177.14 112.933 177.707 108.5 178.84 104.3C180.04 100.1 181.807 96.4 184.14 93.2C186.473 89.9333 189.407 87.4 192.94 85.6C196.54 83.7333 200.707 82.8 205.44 82.8C210.173 82.8 214.273 83.7333 217.74 85.6C221.273 87.4 224.207 89.9333 226.54 93.2C228.873 96.4 230.64 100.1 231.84 104.3C233.04 108.5 233.64 112.933 233.64 117.6C233.64 122.267 233.04 126.7 231.84 130.9C230.64 135.033 228.873 138.733 226.54 142C224.207 145.267 221.273 147.833 217.74 149.7C214.273 151.5 210.173 152.4 205.44 152.4ZM205.44 143.7C208.373 143.7 210.94 143 213.14 141.6C215.34 140.133 217.173 138.2 218.64 135.8C220.107 133.4 221.207 130.667 221.94 127.6C222.673 124.467 223.04 121.2 223.04 117.8C223.04 114.4 222.673 111.133 221.94 108C221.207 104.867 220.107 102.067 218.64 99.6C217.173 97.1333 215.34 95.1667 213.14 93.7C210.94 92.2333 208.373 91.5 205.44 91.5C202.44 91.5 199.807 92.2333 197.54 93.7C195.34 95.1667 193.507 97.1333 192.04 99.6C190.573 102.067 189.473 104.867 188.74 108C188.007 111.133 187.64 114.4 187.64 117.8C187.64 121.2 188.007 124.467 188.74 127.6C189.473 130.667 190.573 133.4 192.04 135.8C193.507 138.2 195.34 140.133 197.54 141.6C199.807 143 202.44 143.7 205.44 143.7ZM242.795 152L241.795 144.9L248.095 143.5V91.1L241.895 90.5V82.9H262.795C267.795 82.9 272.062 83.4667 275.595 84.6C279.195 85.7333 282.095 87.3333 284.295 89.4C286.495 91.4 288.095 93.7333 289.095 96.4C290.095 99.0667 290.595 101.9 290.595 104.9C290.595 109.833 289.462 114 287.195 117.4C284.995 120.8 281.829 123.367 277.695 125.1C273.629 126.833 268.895 127.7 263.495 127.7H258.295V143.1L272.895 145.2L272.595 152H242.795ZM258.295 119H261.295C266.562 119 270.529 118.367 273.195 117.1C275.862 115.833 277.662 114.133 278.595 112C279.595 109.8 280.095 107.4 280.095 104.8C280.095 100.533 278.695 97.2667 275.895 95C273.095 92.7333 269.195 91.6 264.195 91.6H258.295V119ZM298.166 152L297.266 144.7L303.466 143.6V91.1L297.266 90.5V82.9H319.266L320.166 90.4L313.666 91.4V143.8L320.266 144.6L320.166 152H298.166ZM325.693 152L324.393 145.7L329.893 143.9L349.393 82.9H359.893L379.493 143.9L384.193 145.7L383.093 152H360.393V146L368.493 143.9L364.093 129.1H343.193L338.693 144.2L347.493 145.9V152H325.693ZM345.693 120.6H360.793L353.593 93.9L345.693 120.6Z" fill="white"/>
</g>
<defs>
<clipPath id="clip0_115_21">
<rect width="500" height="500" rx="95" fill="white"/>
</clipPath>
</defs>
</svg>
